# xmcd CD database file
#
# Track frame offsets:
#	150
#	14932
#	31427
#	49042
#	63930
#	80262
#	98665
#	114122
#	132755
#	152202
#	176212
#
# Disc length: 2615 seconds
#
# Revision: 2
# Processed by: cddbd v1.5PL3 Copyright (c) Steve Scherf et al.
# Submitted via: CDex 1.50
#
DISCID=890a350b
DTITLE=CLEMENTINE - CLEMENTINE SINGS BEN SIDRAN
DYEAR=1992
DGENRE=Jazz
TTITLE0=BE NICE TO ME BABY (but don't be that nice)
TTITLE1=ON THE COOL SIDE
TTITLE2=PARIS WALK
TTITLE3=OLD HOAGY
TTITLE4=CHOICE IN THE MATTER
TTITLE5=LATELY (I've been thinking of you)
TTITLE6=FEEL YOUR GROOVE
TTITLE7=TRY TO REMEMBER
TTITLE8=YOU KNOW IT DON'T PAY
TTITLE9=SET YOURSELF FREE
TTITLE10=SONG FOR A SUCKER LIKE YOU
EXTD=YEAR: 1992
EXTT0=
EXTT1=
EXTT2=
EXTT3=
EXTT4=
EXTT5=
EXTT6=
EXTT7=
EXTT8=
EXTT9=
EXTT10=
PLAYORDER=
